<mxfile host="Electron" agent="Mozilla/5.0 (Macintosh; Intel Mac OS X 10_15_7) AppleWebKit/537.36 (KHTML, like Gecko) draw.io/28.1.2 Chrome/138.0.7204.243 Electron/37.4.0 Safari/537.36" version="28.1.2">
  <diagram id="RKkWEmGIxCbupBgGL38E" name="Architecture">
    <mxGraphModel dx="1533" dy="1748" grid="1" gridSize="10" guides="1" tooltips="1" connect="1" arrows="1" fold="1" page="1" pageScale="1" pageWidth="827" pageHeight="1169" math="0" shadow="0">
      <root>
        <mxCell id="0" />
        <mxCell id="1" parent="0" />
        <mxCell id="ImW3sRXgMdvdwZVzjegv-43" value="StrictDoc&#39;s high-level architecture" style="rounded=0;whiteSpace=wrap;html=1;fontSize=30;verticalAlign=top;align=left;" parent="1" vertex="1">
          <mxGeometry x="-140" y="-260" width="1940" height="980" as="geometry" />
        </mxCell>
        <mxCell id="ImW3sRXgMdvdwZVzjegv-44" style="rounded=0;orthogonalLoop=1;jettySize=auto;html=1;exitX=0;exitY=0.75;exitDx=0;exitDy=0;entryX=1;entryY=0.25;entryDx=0;entryDy=0;startArrow=none;startFill=0;edgeStyle=orthogonalEdgeStyle;" parent="1" source="ImW3sRXgMdvdwZVzjegv-77" target="ImW3sRXgMdvdwZVzjegv-48" edge="1">
          <mxGeometry relative="1" as="geometry" />
        </mxCell>
        <mxCell id="ImW3sRXgMdvdwZVzjegv-45" value="Export static HTML files" style="edgeLabel;html=1;align=center;verticalAlign=middle;resizable=0;points=[];fontSize=13;" parent="ImW3sRXgMdvdwZVzjegv-44" connectable="0" vertex="1">
          <mxGeometry x="0.2052" y="1" relative="1" as="geometry">
            <mxPoint x="-1" y="-26" as="offset" />
          </mxGeometry>
        </mxCell>
        <mxCell id="ImW3sRXgMdvdwZVzjegv-46" value="&lt;div style=&quot;font-size: 13px;&quot;&gt;Receive commands from a user&lt;/div&gt;" style="edgeLabel;html=1;align=center;verticalAlign=middle;resizable=0;points=[];fontSize=13;labelBackgroundColor=none;" parent="ImW3sRXgMdvdwZVzjegv-44" connectable="0" vertex="1">
          <mxGeometry x="0.2052" y="1" relative="1" as="geometry">
            <mxPoint x="-1" y="336" as="offset" />
          </mxGeometry>
        </mxCell>
        <mxCell id="ImW3sRXgMdvdwZVzjegv-47" style="edgeStyle=orthogonalEdgeStyle;rounded=0;orthogonalLoop=1;jettySize=auto;html=1;exitX=1;exitY=0.75;exitDx=0;exitDy=0;entryX=0.006;entryY=0.376;entryDx=0;entryDy=0;startArrow=none;startFill=0;entryPerimeter=0;" parent="1" source="ImW3sRXgMdvdwZVzjegv-48" target="ImW3sRXgMdvdwZVzjegv-50" edge="1">
          <mxGeometry relative="1" as="geometry" />
        </mxCell>
        <mxCell id="ImW3sRXgMdvdwZVzjegv-48" value="Web interface" style="rounded=0;whiteSpace=wrap;html=1;fontSize=18;verticalAlign=top;" parent="1" vertex="1">
          <mxGeometry x="-80" width="320" height="600" as="geometry" />
        </mxCell>
        <mxCell id="ImW3sRXgMdvdwZVzjegv-49" value="Static HTML pages" style="rounded=0;whiteSpace=wrap;html=1;fontSize=18;verticalAlign=top;align=center;labelPosition=center;verticalLabelPosition=middle;" parent="1" vertex="1">
          <mxGeometry x="-60" y="50" width="280" height="300" as="geometry" />
        </mxCell>
        <mxCell id="ImW3sRXgMdvdwZVzjegv-50" value="Web server (FastAPI)" style="rounded=0;whiteSpace=wrap;html=1;fontSize=18;verticalAlign=top;" parent="1" vertex="1">
          <mxGeometry x="460" y="360" width="340" height="240" as="geometry" />
        </mxCell>
        <mxCell id="ImW3sRXgMdvdwZVzjegv-51" value="SDoc backend" style="rounded=0;whiteSpace=wrap;html=1;fontSize=18;verticalAlign=top;" parent="1" vertex="1">
          <mxGeometry x="1490" y="-189" width="240" height="240" as="geometry" />
        </mxCell>
        <mxCell id="ImW3sRXgMdvdwZVzjegv-52" style="edgeStyle=orthogonalEdgeStyle;rounded=0;orthogonalLoop=1;jettySize=auto;html=1;exitX=1;exitY=0.5;exitDx=0;exitDy=0;entryX=0;entryY=0.75;entryDx=0;entryDy=0;" parent="1" source="ImW3sRXgMdvdwZVzjegv-50" target="ImW3sRXgMdvdwZVzjegv-62" edge="1">
          <mxGeometry relative="1" as="geometry">
            <Array as="points">
              <mxPoint x="940" y="480" />
              <mxPoint x="940" y="61" />
            </Array>
          </mxGeometry>
        </mxCell>
        <mxCell id="ImW3sRXgMdvdwZVzjegv-53" style="edgeStyle=orthogonalEdgeStyle;rounded=0;orthogonalLoop=1;jettySize=auto;html=1;exitX=1;exitY=0.5;exitDx=0;exitDy=0;entryX=0;entryY=0.5;entryDx=0;entryDy=0;startArrow=none;startFill=0;" parent="1" target="ImW3sRXgMdvdwZVzjegv-51" edge="1">
          <mxGeometry relative="1" as="geometry">
            <mxPoint x="1320" y="-69" as="sourcePoint" />
          </mxGeometry>
        </mxCell>
        <mxCell id="ImW3sRXgMdvdwZVzjegv-54" value="&lt;div&gt;SDoc objects&lt;/div&gt;&lt;div&gt;&amp;lt;-&amp;gt;&lt;/div&gt;&lt;div&gt;SDoc files&lt;/div&gt;&lt;div&gt;Read, parse, write&lt;br&gt;&lt;/div&gt;" style="edgeLabel;html=1;align=center;verticalAlign=middle;resizable=0;points=[];fontSize=13;labelBackgroundColor=none;" parent="ImW3sRXgMdvdwZVzjegv-53" connectable="0" vertex="1">
          <mxGeometry x="-0.4324" y="3" relative="1" as="geometry">
            <mxPoint x="41" y="-37" as="offset" />
          </mxGeometry>
        </mxCell>
        <mxCell id="ImW3sRXgMdvdwZVzjegv-55" value="&lt;div&gt;SDoc objects&lt;/div&gt;&lt;div&gt;&amp;nbsp;&amp;lt;-&amp;gt;&amp;nbsp;&lt;/div&gt;&lt;div&gt;Source files&lt;/div&gt;&lt;div&gt;Read, parse, write&lt;br&gt;&lt;/div&gt;" style="edgeLabel;html=1;align=center;verticalAlign=middle;resizable=0;points=[];fontSize=13;labelBackgroundColor=none;" parent="ImW3sRXgMdvdwZVzjegv-53" connectable="0" vertex="1">
          <mxGeometry x="-0.4324" y="3" relative="1" as="geometry">
            <mxPoint x="61" y="302" as="offset" />
          </mxGeometry>
        </mxCell>
        <mxCell id="ImW3sRXgMdvdwZVzjegv-56" value="&lt;div&gt;SDoc objects&lt;/div&gt;&lt;div&gt;&amp;nbsp;&amp;lt;-&amp;gt;&amp;nbsp;&lt;/div&gt;&lt;div&gt;ReqIF files&lt;/div&gt;&lt;div&gt;Read, parse, write&lt;br&gt;&lt;/div&gt;" style="edgeLabel;html=1;align=center;verticalAlign=middle;resizable=0;points=[];fontSize=13;labelBackgroundColor=none;" parent="ImW3sRXgMdvdwZVzjegv-53" connectable="0" vertex="1">
          <mxGeometry x="-0.4324" y="3" relative="1" as="geometry">
            <mxPoint x="52" y="522" as="offset" />
          </mxGeometry>
        </mxCell>
        <mxCell id="ImW3sRXgMdvdwZVzjegv-57" value="&lt;div&gt;SDoc objects&lt;/div&gt;&lt;div&gt;&amp;nbsp;&amp;lt;-&amp;gt;&amp;nbsp;&lt;/div&gt;Other formats" style="edgeLabel;html=1;align=center;verticalAlign=middle;resizable=0;points=[];fontSize=13;labelBackgroundColor=none;" parent="ImW3sRXgMdvdwZVzjegv-53" connectable="0" vertex="1">
          <mxGeometry x="-0.4324" y="3" relative="1" as="geometry">
            <mxPoint x="42" y="682" as="offset" />
          </mxGeometry>
        </mxCell>
        <mxCell id="ImW3sRXgMdvdwZVzjegv-58" style="edgeStyle=orthogonalEdgeStyle;rounded=0;orthogonalLoop=1;jettySize=auto;html=1;exitX=1;exitY=0.5;exitDx=0;exitDy=0;entryX=0;entryY=0.5;entryDx=0;entryDy=0;" parent="1" target="ImW3sRXgMdvdwZVzjegv-78" edge="1">
          <mxGeometry relative="1" as="geometry">
            <mxPoint x="1320" y="-69" as="sourcePoint" />
          </mxGeometry>
        </mxCell>
        <mxCell id="ImW3sRXgMdvdwZVzjegv-59" style="edgeStyle=orthogonalEdgeStyle;rounded=0;orthogonalLoop=1;jettySize=auto;html=1;exitX=0.5;exitY=1;exitDx=0;exitDy=0;entryX=0.5;entryY=0;entryDx=0;entryDy=0;" parent="1" source="ImW3sRXgMdvdwZVzjegv-62" target="ImW3sRXgMdvdwZVzjegv-79" edge="1">
          <mxGeometry relative="1" as="geometry" />
        </mxCell>
        <mxCell id="ImW3sRXgMdvdwZVzjegv-60" value="Get Git information" style="edgeLabel;html=1;align=center;verticalAlign=middle;resizable=0;points=[];fontSize=13;" parent="ImW3sRXgMdvdwZVzjegv-59" connectable="0" vertex="1">
          <mxGeometry x="-0.4111" relative="1" as="geometry">
            <mxPoint x="70" y="7" as="offset" />
          </mxGeometry>
        </mxCell>
        <mxCell id="ImW3sRXgMdvdwZVzjegv-61" style="edgeStyle=orthogonalEdgeStyle;rounded=0;orthogonalLoop=1;jettySize=auto;html=1;exitX=1;exitY=0.75;exitDx=0;exitDy=0;entryX=0;entryY=0.5;entryDx=0;entryDy=0;" parent="1" source="ImW3sRXgMdvdwZVzjegv-62" target="ImW3sRXgMdvdwZVzjegv-82" edge="1">
          <mxGeometry relative="1" as="geometry">
            <Array as="points">
              <mxPoint x="1340" y="62" />
              <mxPoint x="1340" y="585" />
            </Array>
          </mxGeometry>
        </mxCell>
        <mxCell id="ImW3sRXgMdvdwZVzjegv-62" value="Traceability graph" style="rounded=0;whiteSpace=wrap;html=1;fontSize=18;verticalAlign=top;" parent="1" vertex="1">
          <mxGeometry x="960" y="-189" width="360" height="334" as="geometry" />
        </mxCell>
        <mxCell id="ImW3sRXgMdvdwZVzjegv-63" style="edgeStyle=orthogonalEdgeStyle;rounded=0;orthogonalLoop=1;jettySize=auto;html=1;exitX=1;exitY=0.5;exitDx=0;exitDy=0;entryX=0;entryY=0.5;entryDx=0;entryDy=0;startArrow=none;startFill=0;" parent="1" source="ImW3sRXgMdvdwZVzjegv-66" target="ImW3sRXgMdvdwZVzjegv-62" edge="1">
          <mxGeometry relative="1" as="geometry" />
        </mxCell>
        <mxCell id="ImW3sRXgMdvdwZVzjegv-64" value="&lt;div style=&quot;font-size: 13px;&quot;&gt;Get traceability data&lt;/div&gt;&lt;div style=&quot;font-size: 13px;&quot;&gt;to generate HTML&lt;/div&gt;" style="edgeLabel;html=1;align=center;verticalAlign=middle;resizable=0;points=[];fontSize=13;" parent="ImW3sRXgMdvdwZVzjegv-63" connectable="0" vertex="1">
          <mxGeometry x="-0.5545" relative="1" as="geometry">
            <mxPoint x="-20" y="25" as="offset" />
          </mxGeometry>
        </mxCell>
        <mxCell id="ImW3sRXgMdvdwZVzjegv-65" style="edgeStyle=orthogonalEdgeStyle;rounded=0;orthogonalLoop=1;jettySize=auto;html=1;exitX=0.5;exitY=0;exitDx=0;exitDy=0;entryX=0.5;entryY=1;entryDx=0;entryDy=0;startArrow=none;startFill=0;" parent="1" source="ImW3sRXgMdvdwZVzjegv-50" target="ImW3sRXgMdvdwZVzjegv-66" edge="1">
          <mxGeometry relative="1" as="geometry" />
        </mxCell>
        <mxCell id="ImW3sRXgMdvdwZVzjegv-66" value="HTML generators" style="rounded=0;whiteSpace=wrap;html=1;fontSize=18;verticalAlign=top;" parent="1" vertex="1">
          <mxGeometry x="460" y="50" width="340" height="250" as="geometry" />
        </mxCell>
        <mxCell id="ImW3sRXgMdvdwZVzjegv-67" style="edgeStyle=orthogonalEdgeStyle;rounded=0;orthogonalLoop=1;jettySize=auto;html=1;exitX=1;exitY=0.5;exitDx=0;exitDy=0;entryX=0.007;entryY=0.422;entryDx=0;entryDy=0;entryPerimeter=0;" parent="1" source="ImW3sRXgMdvdwZVzjegv-68" target="ImW3sRXgMdvdwZVzjegv-77" edge="1">
          <mxGeometry relative="1" as="geometry" />
        </mxCell>
        <mxCell id="ImW3sRXgMdvdwZVzjegv-68" value="CLI interface" style="rounded=0;whiteSpace=wrap;html=1;fontSize=18;verticalAlign=top;" parent="1" vertex="1">
          <mxGeometry x="-80" y="-190" width="320" height="160" as="geometry" />
        </mxCell>
        <mxCell id="ImW3sRXgMdvdwZVzjegv-69" value="Dynamic HTML content" style="rounded=0;whiteSpace=wrap;html=1;fontSize=18;verticalAlign=top;align=center;labelPosition=center;verticalLabelPosition=middle;" parent="1" vertex="1">
          <mxGeometry x="-60" y="370" width="280" height="210" as="geometry" />
        </mxCell>
        <mxCell id="ImW3sRXgMdvdwZVzjegv-70" style="edgeStyle=orthogonalEdgeStyle;rounded=0;orthogonalLoop=1;jettySize=auto;html=1;exitX=1;exitY=0.5;exitDx=0;exitDy=0;entryX=0;entryY=0.281;entryDx=0;entryDy=0;entryPerimeter=0;" parent="1" source="ImW3sRXgMdvdwZVzjegv-77" target="ImW3sRXgMdvdwZVzjegv-62" edge="1">
          <mxGeometry relative="1" as="geometry" />
        </mxCell>
        <mxCell id="ImW3sRXgMdvdwZVzjegv-71" value="&lt;div&gt;Use and perform&lt;/div&gt;&lt;div&gt;transformations of&lt;/div&gt;&lt;div&gt;SDoc graph&lt;/div&gt;" style="edgeLabel;html=1;align=center;verticalAlign=middle;resizable=0;points=[];labelBackgroundColor=none;fontSize=13;" parent="ImW3sRXgMdvdwZVzjegv-70" connectable="0" vertex="1">
          <mxGeometry x="-0.5554" y="4" relative="1" as="geometry">
            <mxPoint x="44" y="-31" as="offset" />
          </mxGeometry>
        </mxCell>
        <mxCell id="ImW3sRXgMdvdwZVzjegv-72" value="&lt;div&gt;Use and perform&lt;/div&gt;&lt;div&gt;transformations of&lt;/div&gt;&lt;div&gt;SDoc graph&lt;/div&gt;" style="edgeLabel;html=1;align=center;verticalAlign=middle;resizable=0;points=[];labelBackgroundColor=none;fontSize=13;" parent="ImW3sRXgMdvdwZVzjegv-70" connectable="0" vertex="1">
          <mxGeometry x="-0.5554" y="4" relative="1" as="geometry">
            <mxPoint x="35" y="549" as="offset" />
          </mxGeometry>
        </mxCell>
        <mxCell id="ImW3sRXgMdvdwZVzjegv-73" value="&lt;div&gt;Execute commands&lt;/div&gt;&lt;div&gt;Report progress to command line&lt;br&gt;&lt;/div&gt;" style="edgeLabel;html=1;align=center;verticalAlign=middle;resizable=0;points=[];labelBackgroundColor=none;fontSize=13;" parent="ImW3sRXgMdvdwZVzjegv-70" connectable="0" vertex="1">
          <mxGeometry x="-0.5554" y="4" relative="1" as="geometry">
            <mxPoint x="-487" y="-51" as="offset" />
          </mxGeometry>
        </mxCell>
        <mxCell id="ImW3sRXgMdvdwZVzjegv-74" value="Generate HTML" style="edgeLabel;html=1;align=center;verticalAlign=middle;resizable=0;points=[];labelBackgroundColor=none;fontSize=13;" parent="ImW3sRXgMdvdwZVzjegv-70" connectable="0" vertex="1">
          <mxGeometry x="-0.5554" y="4" relative="1" as="geometry">
            <mxPoint x="-269" y="121" as="offset" />
          </mxGeometry>
        </mxCell>
        <mxCell id="ImW3sRXgMdvdwZVzjegv-75" value="Generate HTML" style="edgeLabel;html=1;align=center;verticalAlign=middle;resizable=0;points=[];labelBackgroundColor=none;fontSize=13;" parent="ImW3sRXgMdvdwZVzjegv-70" connectable="0" vertex="1">
          <mxGeometry x="-0.5554" y="4" relative="1" as="geometry">
            <mxPoint x="-194" y="421" as="offset" />
          </mxGeometry>
        </mxCell>
        <mxCell id="ImW3sRXgMdvdwZVzjegv-76" style="edgeStyle=orthogonalEdgeStyle;rounded=0;orthogonalLoop=1;jettySize=auto;html=1;exitX=0.5;exitY=1;exitDx=0;exitDy=0;startArrow=none;startFill=0;" parent="1" source="ImW3sRXgMdvdwZVzjegv-77" target="ImW3sRXgMdvdwZVzjegv-66" edge="1">
          <mxGeometry relative="1" as="geometry" />
        </mxCell>
        <mxCell id="ImW3sRXgMdvdwZVzjegv-77" value="CLI actions" style="rounded=0;whiteSpace=wrap;html=1;fontSize=18;verticalAlign=top;" parent="1" vertex="1">
          <mxGeometry x="460" y="-190" width="340" height="190" as="geometry" />
        </mxCell>
        <mxCell id="ImW3sRXgMdvdwZVzjegv-78" value="Source files" style="rounded=0;whiteSpace=wrap;html=1;fontSize=18;verticalAlign=top;" parent="1" vertex="1">
          <mxGeometry x="1490" y="71" width="240" height="240" as="geometry" />
        </mxCell>
        <mxCell id="ImW3sRXgMdvdwZVzjegv-79" value="Git engine" style="rounded=0;whiteSpace=wrap;html=1;fontSize=18;verticalAlign=top;" parent="1" vertex="1">
          <mxGeometry x="1070" y="205" width="140" height="160" as="geometry" />
        </mxCell>
        <mxCell id="ImW3sRXgMdvdwZVzjegv-80" value="ReqIF" style="rounded=0;whiteSpace=wrap;html=1;fontSize=18;verticalAlign=top;" parent="1" vertex="1">
          <mxGeometry x="1490" y="335" width="240" height="150" as="geometry" />
        </mxCell>
        <mxCell id="ImW3sRXgMdvdwZVzjegv-81" style="edgeStyle=orthogonalEdgeStyle;rounded=0;orthogonalLoop=1;jettySize=auto;html=1;exitX=1;exitY=0.5;exitDx=0;exitDy=0;entryX=0;entryY=0.5;entryDx=0;entryDy=0;" parent="1" source="ImW3sRXgMdvdwZVzjegv-62" target="ImW3sRXgMdvdwZVzjegv-80" edge="1">
          <mxGeometry relative="1" as="geometry">
            <Array as="points">
              <mxPoint x="1360" y="-22" />
              <mxPoint x="1360" y="410" />
            </Array>
          </mxGeometry>
        </mxCell>
        <mxCell id="ImW3sRXgMdvdwZVzjegv-82" value="Other formats" style="rounded=0;whiteSpace=wrap;html=1;fontSize=18;verticalAlign=top;" parent="1" vertex="1">
          <mxGeometry x="1490" y="510" width="240" height="150" as="geometry" />
        </mxCell>
        <mxCell id="ImW3sRXgMdvdwZVzjegv-83" style="edgeStyle=orthogonalEdgeStyle;rounded=0;orthogonalLoop=1;jettySize=auto;html=1;exitX=1;exitY=0.75;exitDx=0;exitDy=0;entryX=0.006;entryY=0.376;entryDx=0;entryDy=0;startArrow=none;startFill=0;entryPerimeter=0;" parent="1" edge="1">
          <mxGeometry relative="1" as="geometry">
            <mxPoint x="462" y="530" as="sourcePoint" />
            <mxPoint x="240" y="530" as="targetPoint" />
          </mxGeometry>
        </mxCell>
        <mxCell id="ImW3sRXgMdvdwZVzjegv-84" value="&lt;div&gt;Render static HTML,&lt;/div&gt;&lt;div&gt;write the updated HTML back&lt;/div&gt;" style="edgeLabel;html=1;align=center;verticalAlign=middle;resizable=0;points=[];fontSize=13;" parent="ImW3sRXgMdvdwZVzjegv-83" connectable="0" vertex="1">
          <mxGeometry x="0.0043" y="-2" relative="1" as="geometry">
            <mxPoint y="-18" as="offset" />
          </mxGeometry>
        </mxCell>
        <mxCell id="ImW3sRXgMdvdwZVzjegv-85" value="Form objects" style="rounded=0;whiteSpace=wrap;html=1;fillColor=#f5f5f5;fontColor=#333333;strokeColor=#666666;fontStyle=1" parent="1" vertex="1">
          <mxGeometry x="690" y="410" width="80" height="80" as="geometry" />
        </mxCell>
        <mxCell id="ImW3sRXgMdvdwZVzjegv-86" value="&lt;b&gt;SDoc files&lt;br&gt;&lt;/b&gt;" style="rounded=0;whiteSpace=wrap;html=1;fillColor=#f5f5f5;fontColor=#333333;strokeColor=#666666;" parent="1" vertex="1">
          <mxGeometry x="1570" y="-49" width="80" height="80" as="geometry" />
        </mxCell>
        <mxCell id="ImW3sRXgMdvdwZVzjegv-87" value="Jinja templates" style="rounded=0;whiteSpace=wrap;html=1;fillColor=#f5f5f5;fontColor=#333333;strokeColor=#666666;fontStyle=1" parent="1" vertex="1">
          <mxGeometry x="490" y="190" width="80" height="80" as="geometry" />
        </mxCell>
        <mxCell id="ImW3sRXgMdvdwZVzjegv-88" value="&lt;div&gt;FastAPI endpoint,&lt;/div&gt;&lt;div&gt;e.g.,&lt;/div&gt;&lt;div&gt;GET /search&lt;br&gt;&lt;/div&gt;" style="rounded=0;whiteSpace=wrap;html=1;fillColor=#f5f5f5;fontColor=#333333;strokeColor=#666666;fontStyle=1" parent="1" vertex="1">
          <mxGeometry x="490" y="410" width="80" height="80" as="geometry" />
        </mxCell>
        <mxCell id="ImW3sRXgMdvdwZVzjegv-89" value="&lt;div&gt;&lt;b&gt;SDReader/&lt;/b&gt;&lt;/div&gt;&lt;div&gt;&lt;b&gt;SDWriter&lt;/b&gt;&lt;/div&gt;" style="rounded=0;whiteSpace=wrap;html=1;fillColor=#f5f5f5;fontColor=#333333;strokeColor=#666666;" parent="1" vertex="1">
          <mxGeometry x="1620" y="-149" width="80" height="80" as="geometry" />
        </mxCell>
        <mxCell id="ImW3sRXgMdvdwZVzjegv-90" value="&lt;b&gt;Traceability Index&lt;br&gt;&lt;/b&gt;" style="rounded=0;whiteSpace=wrap;html=1;fillColor=#f5f5f5;fontColor=#333333;strokeColor=#666666;" parent="1" vertex="1">
          <mxGeometry x="1100" y="-139" width="80" height="80" as="geometry" />
        </mxCell>
        <mxCell id="ImW3sRXgMdvdwZVzjegv-91" value="HTML" style="rounded=0;whiteSpace=wrap;html=1;fillColor=#f5f5f5;fontColor=#333333;strokeColor=#666666;fontStyle=1" parent="1" vertex="1">
          <mxGeometry x="-30" y="130" width="80" height="80" as="geometry" />
        </mxCell>
        <mxCell id="ImW3sRXgMdvdwZVzjegv-92" value="&lt;div&gt;Turbo/Stimulus&lt;/div&gt;&lt;div&gt;&lt;br&gt;&lt;/div&gt;&lt;div&gt;(AJAX)&lt;br&gt;&lt;/div&gt;" style="rounded=0;whiteSpace=wrap;html=1;fillColor=#f5f5f5;fontColor=#333333;strokeColor=#666666;fontStyle=1" parent="1" vertex="1">
          <mxGeometry x="-30" y="450" width="80" height="80" as="geometry" />
        </mxCell>
        <mxCell id="ImW3sRXgMdvdwZVzjegv-93" value="&lt;div&gt;&lt;b&gt;Iterators&lt;/b&gt;&lt;/div&gt;&lt;div&gt;&lt;b&gt;(document- and document tree-level)&lt;br&gt;&lt;/b&gt;&lt;/div&gt;" style="rounded=0;whiteSpace=wrap;html=1;fillColor=#f5f5f5;fontColor=#333333;strokeColor=#666666;" parent="1" vertex="1">
          <mxGeometry x="1100" y="-49" width="80" height="80" as="geometry" />
        </mxCell>
        <mxCell id="ImW3sRXgMdvdwZVzjegv-94" value="&lt;b&gt;RST renderer&lt;br&gt;&lt;/b&gt;" style="rounded=0;whiteSpace=wrap;html=1;fillColor=#f5f5f5;fontColor=#333333;strokeColor=#666666;" parent="1" vertex="1">
          <mxGeometry x="590" y="190" width="80" height="80" as="geometry" />
        </mxCell>
        <mxCell id="ImW3sRXgMdvdwZVzjegv-95" value="&lt;b&gt;Link renderer&lt;br&gt;&lt;/b&gt;" style="rounded=0;whiteSpace=wrap;html=1;fillColor=#f5f5f5;fontColor=#333333;strokeColor=#666666;" parent="1" vertex="1">
          <mxGeometry x="690" y="190" width="80" height="80" as="geometry" />
        </mxCell>
        <mxCell id="ImW3sRXgMdvdwZVzjegv-96" value="&lt;div&gt;Javascript&lt;/div&gt;&lt;div&gt;&lt;br&gt;&lt;/div&gt;&lt;div&gt;(Static HTML subset)&lt;br&gt;&lt;/div&gt;" style="rounded=0;whiteSpace=wrap;html=1;fillColor=#f5f5f5;fontColor=#333333;strokeColor=#666666;fontStyle=1" parent="1" vertex="1">
          <mxGeometry x="100" y="130" width="80" height="80" as="geometry" />
        </mxCell>
        <mxCell id="ImW3sRXgMdvdwZVzjegv-97" value="Screen generators" style="rounded=0;whiteSpace=wrap;html=1;fillColor=#f5f5f5;fontColor=#333333;strokeColor=#666666;fontStyle=1" parent="1" vertex="1">
          <mxGeometry x="490" y="90" width="80" height="80" as="geometry" />
        </mxCell>
        <mxCell id="ImW3sRXgMdvdwZVzjegv-98" value="&lt;b&gt;Transforms&lt;/b&gt;" style="rounded=0;whiteSpace=wrap;html=1;fillColor=#f5f5f5;fontColor=#333333;strokeColor=#666666;" parent="1" vertex="1">
          <mxGeometry x="990" y="-139" width="80" height="80" as="geometry" />
        </mxCell>
        <mxCell id="ImW3sRXgMdvdwZVzjegv-99" value="&lt;div&gt;&lt;b&gt;SDoc objects&lt;/b&gt;&lt;/div&gt;&lt;div&gt;&lt;b&gt;&lt;br&gt;&lt;/b&gt;&lt;/div&gt;&lt;div&gt;&lt;b&gt;(Doc., Sect., Req, etc.)&lt;/b&gt;&lt;/div&gt;" style="rounded=0;whiteSpace=wrap;html=1;fillColor=#f5f5f5;fontColor=#333333;strokeColor=#666666;" parent="1" vertex="1">
          <mxGeometry x="1520" y="-149" width="80" height="80" as="geometry" />
        </mxCell>
        <mxCell id="ImW3sRXgMdvdwZVzjegv-100" value="CLI commands" style="rounded=0;whiteSpace=wrap;html=1;fillColor=#f5f5f5;fontColor=#333333;strokeColor=#666666;fontStyle=1" parent="1" vertex="1">
          <mxGeometry x="-60" y="-140" width="80" height="80" as="geometry" />
        </mxCell>
        <mxCell id="ImW3sRXgMdvdwZVzjegv-101" value="Command-related Action objects" style="rounded=0;whiteSpace=wrap;html=1;fillColor=#f5f5f5;fontColor=#333333;strokeColor=#666666;fontStyle=1" parent="1" vertex="1">
          <mxGeometry x="500" y="-140" width="80" height="80" as="geometry" />
        </mxCell>
        <mxCell id="ImW3sRXgMdvdwZVzjegv-102" value="&lt;div&gt;Turbo streams&lt;/div&gt;&lt;div&gt;&lt;br&gt;&lt;/div&gt;&lt;div&gt;(Jinja partials)&lt;br&gt;&lt;/div&gt;" style="rounded=0;whiteSpace=wrap;html=1;fillColor=#f5f5f5;fontColor=#333333;strokeColor=#666666;fontStyle=1" parent="1" vertex="1">
          <mxGeometry x="490" y="500" width="80" height="80" as="geometry" />
        </mxCell>
        <mxCell id="ImW3sRXgMdvdwZVzjegv-103" value="CLI commands validation" style="rounded=0;whiteSpace=wrap;html=1;fillColor=#f5f5f5;fontColor=#333333;strokeColor=#666666;fontStyle=1" parent="1" vertex="1">
          <mxGeometry x="40" y="-140" width="80" height="80" as="geometry" />
        </mxCell>
        <mxCell id="ImW3sRXgMdvdwZVzjegv-104" value="&lt;b&gt;Source files&lt;br&gt;&lt;br&gt;(*.c/h, *.py, *.rst, etc.)&lt;br&gt;&lt;/b&gt;" style="rounded=0;whiteSpace=wrap;html=1;fillColor=#f5f5f5;fontColor=#333333;strokeColor=#666666;" parent="1" vertex="1">
          <mxGeometry x="1520" y="210" width="80" height="80" as="geometry" />
        </mxCell>
        <mxCell id="ImW3sRXgMdvdwZVzjegv-105" value="&lt;b&gt;General source files traceability reader&lt;br&gt;&lt;/b&gt;" style="rounded=0;whiteSpace=wrap;html=1;fillColor=#f5f5f5;fontColor=#333333;strokeColor=#666666;" parent="1" vertex="1">
          <mxGeometry x="1620" y="111" width="80" height="80" as="geometry" />
        </mxCell>
        <mxCell id="ImW3sRXgMdvdwZVzjegv-106" value="&lt;div&gt;&lt;b&gt;SDoc objects&lt;/b&gt;&lt;/div&gt;&lt;div&gt;&lt;b&gt;&lt;br&gt;&lt;/b&gt;&lt;/div&gt;&lt;div&gt;&lt;b&gt;(RangeMarker,&lt;/b&gt;&lt;/div&gt;&lt;div&gt;&lt;b&gt;source file info)&lt;/b&gt;&lt;/div&gt;" style="rounded=0;whiteSpace=wrap;html=1;fillColor=#f5f5f5;fontColor=#333333;strokeColor=#666666;" parent="1" vertex="1">
          <mxGeometry x="1520" y="111" width="80" height="80" as="geometry" />
        </mxCell>
        <mxCell id="ImW3sRXgMdvdwZVzjegv-107" value="Analyzers" style="rounded=0;whiteSpace=wrap;html=1;fillColor=#f5f5f5;fontColor=#333333;strokeColor=#666666;fontStyle=1" parent="1" vertex="1">
          <mxGeometry x="990" y="-49" width="80" height="80" as="geometry" />
        </mxCell>
        <mxCell id="ImW3sRXgMdvdwZVzjegv-108" value="&lt;div&gt;&lt;b&gt;Validations&lt;br&gt;&lt;/b&gt;&lt;/div&gt;&lt;div&gt;&lt;b&gt;&lt;br&gt;&lt;/b&gt;&lt;/div&gt;&lt;div&gt;&lt;b&gt;(cycle detection etc.)&lt;/b&gt;&lt;/div&gt;" style="rounded=0;whiteSpace=wrap;html=1;fillColor=#f5f5f5;fontColor=#333333;strokeColor=#666666;" parent="1" vertex="1">
          <mxGeometry x="1210" y="-139" width="80" height="80" as="geometry" />
        </mxCell>
        <mxCell id="ImW3sRXgMdvdwZVzjegv-109" value="&lt;b&gt;Query engine&lt;/b&gt;" style="rounded=0;whiteSpace=wrap;html=1;fillColor=#f5f5f5;fontColor=#333333;strokeColor=#666666;" parent="1" vertex="1">
          <mxGeometry x="1210" y="-49" width="80" height="80" as="geometry" />
        </mxCell>
        <mxCell id="ImW3sRXgMdvdwZVzjegv-110" value="Export to non-HTML formats" style="rounded=0;whiteSpace=wrap;html=1;fillColor=#f5f5f5;fontColor=#333333;strokeColor=#666666;fontStyle=1" parent="1" vertex="1">
          <mxGeometry x="600" y="-140" width="80" height="80" as="geometry" />
        </mxCell>
        <mxCell id="ImW3sRXgMdvdwZVzjegv-111" value="Diff engine" style="rounded=0;whiteSpace=wrap;html=1;fillColor=#f5f5f5;fontColor=#333333;strokeColor=#666666;fontStyle=1" parent="1" vertex="1">
          <mxGeometry x="990" y="45" width="80" height="80" as="geometry" />
        </mxCell>
        <mxCell id="ImW3sRXgMdvdwZVzjegv-112" value="Git client" style="rounded=0;whiteSpace=wrap;html=1;fillColor=#f5f5f5;fontColor=#333333;strokeColor=#666666;fontStyle=1" parent="1" vertex="1">
          <mxGeometry x="1100" y="255" width="80" height="80" as="geometry" />
        </mxCell>
        <mxCell id="ImW3sRXgMdvdwZVzjegv-113" value="&lt;b&gt;.reqif files&lt;br&gt;&lt;/b&gt;" style="rounded=0;whiteSpace=wrap;html=1;fillColor=#f5f5f5;fontColor=#333333;strokeColor=#666666;" parent="1" vertex="1">
          <mxGeometry x="1620" y="375" width="80" height="80" as="geometry" />
        </mxCell>
        <mxCell id="ImW3sRXgMdvdwZVzjegv-114" value="&lt;div&gt;&lt;b&gt;ReqIF library&lt;/b&gt;&lt;/div&gt;" style="rounded=0;whiteSpace=wrap;html=1;fillColor=#f5f5f5;fontColor=#333333;strokeColor=#666666;" parent="1" vertex="1">
          <mxGeometry x="1520" y="375" width="80" height="80" as="geometry" />
        </mxCell>
        <mxCell id="ImW3sRXgMdvdwZVzjegv-115" value="&lt;b&gt;Excel, etc.&lt;br&gt;&lt;/b&gt;" style="rounded=0;whiteSpace=wrap;html=1;fillColor=#f5f5f5;fontColor=#333333;strokeColor=#666666;" parent="1" vertex="1">
          <mxGeometry x="1620" y="550" width="80" height="80" as="geometry" />
        </mxCell>
        <mxCell id="ImW3sRXgMdvdwZVzjegv-116" value="&lt;b&gt;SPDX&lt;/b&gt;" style="rounded=0;whiteSpace=wrap;html=1;fillColor=#f5f5f5;fontColor=#333333;strokeColor=#666666;" parent="1" vertex="1">
          <mxGeometry x="1520" y="550" width="80" height="80" as="geometry" />
        </mxCell>
        <mxCell id="ImW3sRXgMdvdwZVzjegv-117" value="HTML updates" style="rounded=0;whiteSpace=wrap;html=1;fillColor=#f5f5f5;fontColor=#333333;strokeColor=#666666;fontStyle=1" parent="1" vertex="1">
          <mxGeometry x="90" y="450" width="80" height="80" as="geometry" />
        </mxCell>
        <mxCell id="ImW3sRXgMdvdwZVzjegv-118" value="&lt;div&gt;&lt;b&gt;JS files&lt;/b&gt;&lt;/div&gt;&lt;div&gt;&lt;b&gt;&lt;br&gt;&lt;/b&gt;&lt;/div&gt;&lt;div&gt;&lt;b&gt;(incl. third-party)&lt;br&gt;&lt;/b&gt;&lt;/div&gt;" style="rounded=0;whiteSpace=wrap;html=1;fillColor=#f5f5f5;fontColor=#333333;strokeColor=#666666;" parent="1" vertex="1">
          <mxGeometry x="590" y="90" width="80" height="80" as="geometry" />
        </mxCell>
        <mxCell id="ImW3sRXgMdvdwZVzjegv-119" value="&lt;b&gt;CSS&lt;/b&gt;" style="rounded=0;whiteSpace=wrap;html=1;fillColor=#f5f5f5;fontColor=#333333;strokeColor=#666666;" parent="1" vertex="1">
          <mxGeometry x="690" y="90" width="80" height="80" as="geometry" />
        </mxCell>
        <mxCell id="TzzAR7GHD2pN6BR4ULwb-1" value="&lt;b&gt;Language-aware source files traceability reader&lt;br&gt;&lt;/b&gt;" style="rounded=0;whiteSpace=wrap;html=1;fillColor=#f5f5f5;fontColor=#333333;strokeColor=#666666;" parent="1" vertex="1">
          <mxGeometry x="1620" y="210" width="80" height="80" as="geometry" />
        </mxCell>
      </root>
    </mxGraphModel>
  </diagram>
</mxfile>
